<?xml version="1.0" encoding="utf-8"?>
<svg xmlns="http://www.w3.org/2000/svg" viewBox="0 0 390.6 450">
  <g fill="#000000">
    <path d="M374.2,450c-9,0-16.3-7.2-16.3-16.1c0-8.9,7.3-16.1,16.3-16.1c9,0,16.4,7.2,16.4,16.1 C390.6,442.8,383.2,450,374.2,450z M374.2,446c-6.8,0-12.3-5.4-12.3-12.1c0-6.7,5.5-12.2,12.3-12.2c6.8,0,12.3,5.4,12.3,12.2 C386.5,440.6,381,446,374.2,446z M368.4,441.1h3.5v-5h3l2.5,5h3.9l-3-5.8c1.4-0.8,2.4-2.3,2.4-4.3c0-3.2-2.6-4.8-4.8-4.8h-7.5 L368.4,441.1z M372,433.5v-4.7h2.9c0.9,0,2.1,0.5,2.1,2.3c0,1.6-1.2,2.5-2.2,2.5H372z"/>
    <path d="M239.1,403.1L111.7,276.4l0,126.8H82.5L0,320.8V82.3L82.4,0h29.2l0,126.8L239,0h151.4L192.4,201.5l198.1,201.6L239.1,403.1 z M111.7,255.5l51-53.9l-51-53.9l-53,53.9L111.7,255.5z"/>
  </g>
</svg>
