<?xml version="1.0" encoding="utf-8"?>
<!-- Generator: Adobe Illustrator 23.1.0, SVG Export Plug-In . SVG Version: 6.00 Build 0)  -->
<svg version="1.1" id="Layer_1" xmlns="http://www.w3.org/2000/svg" xmlns:xlink="http://www.w3.org/1999/xlink" x="0px" y="0px"
	 viewBox="0 0 1986.5 2024.1" style="enable-background:new 0 0 1986.5 2024.1;" xml:space="preserve">
<style type="text/css">
	.st0{fill-rule:evenodd;clip-rule:evenodd;}
</style>
<g>
	<path class="st0" d="M1456.4,530.1h-163.1l-136.9,136.4V530.1h-31.6l-88.7,88.7v256.7l88.7,88.4h31.6V827.5l137.1,136.4h162.9
		L1243.1,747L1456.4,530.1z M1156.4,805.1l-56.9-58.1l56.9-58.1l54.9,58.1L1156.4,805.1z"/>
	<path class="st0" d="M650.4,666.5V530.1h-31.6l-88.7,88.7v256.7l88.7,88.4h31.6V827.5l137.1,136.4h162.9L737.1,747l213.3-216.9
		H787.3L650.4,666.5z M650.4,805.1L593.5,747l56.9-58.1l54.9,58.1L650.4,805.1z"/>
	<path class="st0" d="M1293.3,1060.3l-136.9,136.4v-136.4h-31.6l-88.7,88.7v256.6l88.7,88.4h31.6v-136.4l137.1,136.4v0.1h162.9
		l-213.3-216.9l213.3-216.9H1293.3z M1156.4,1335.2l-56.9-58.1l56.9-58.1l54.9,58.1L1156.4,1335.2z"/>
	<path class="st0" d="M787.3,1060.3l-136.9,136.4v-136.4h-31.6l-88.7,88.7v256.6l88.7,88.4h31.6v-136.4L787.5,1494h162.9
		l-213.3-216.8l213.3-216.9H787.3z M650.4,1335.2l-56.9-58.1l56.9-58.1l54.9,58.1L650.4,1335.2z"/>
</g>
</svg>
