<?xml version="1.0" encoding="utf-8"?>
<!-- Generator: Adobe Illustrator 23.1.0, SVG Export Plug-In . SVG Version: 6.00 Build 0)  -->
<svg version="1.1" id="Layer_1" xmlns="http://www.w3.org/2000/svg" xmlns:xlink="http://www.w3.org/1999/xlink" x="0px" y="0px"
	 viewBox="0 0 1986.5 2024.1" style="enable-background:new 0 0 1986.5 2024.1;" xml:space="preserve">
<style type="text/css">
	.st0{fill-rule:evenodd;clip-rule:evenodd;}
</style>
<g>
	<path class="st0" d="M257.3,433.7L120.2,297.3v136.4H88.7L0,345.3V88.7L88.7,0h31.6v136.4L257.1,0h163.1L207,216.9l213.3,216.9
		L257.3,433.7L257.3,433.7z M120.2,274.9l54.9-58.1l-54.9-58.1l-56.9,58.1L120.2,274.9z"/>
	<path class="st0" d="M787.5,433.7L650.4,297.3v136.4h-31.6l-88.7-88.4V88.7L618.8,0h31.6v136.4L787.2,0h163.1L737.1,216.9
		l213.3,216.9L787.5,433.7L787.5,433.7z M650.4,274.9l54.9-58.1l-54.9-58.1l-56.9,58.1L650.4,274.9z"/>
	<path class="st0" d="M257.3,433.7L120.2,297.3v136.4H88.7L0,345.3V88.7L88.7,0h31.6v136.4L257.1,0h163.1L207,216.9l213.3,216.9
		L257.3,433.7L257.3,433.7z M120.2,274.9l54.9-58.1l-54.9-58.1l-56.9,58.1L120.2,274.9z"/>
	<path class="st0" d="M787.5,433.7L650.4,297.3v136.4h-31.6l-88.7-88.4V88.7L618.8,0h31.6v136.4L787.2,0h163.1L737.1,216.9
		l213.3,216.9L787.5,433.7L787.5,433.7z M650.4,274.9l54.9-58.1l-54.9-58.1l-56.9,58.1L650.4,274.9z"/>
	<path class="st0" d="M1293.5,433.7l-137.1-136.4v136.4h-31.6l-88.7-88.4V88.7L1124.8,0h31.6v136.4L1293.3,0h163.1l-213.3,216.9
		l213.3,216.9L1293.5,433.7L1293.5,433.7z M1156.4,274.9l54.9-58.1l-54.9-58.1l-56.9,58.1L1156.4,274.9z"/>
	<path class="st0" d="M1823.6,433.7l-137.1-136.4v136.4h-31.6l-88.7-88.4V88.7L1654.9,0h31.6v136.4L1823.4,0h163.1l-213.3,216.9
		l213.3,216.9L1823.6,433.7L1823.6,433.7z M1686.5,274.9l54.9-58.1l-54.9-58.1l-56.9,58.1L1686.5,274.9z"/>
	<path class="st0" d="M1293.5,433.7l-137.1-136.4v136.4h-31.6l-88.7-88.4V88.7L1124.8,0h31.6v136.4L1293.3,0h163.1l-213.3,216.9
		l213.3,216.9L1293.5,433.7L1293.5,433.7z M1156.4,274.9l54.9-58.1l-54.9-58.1l-56.9,58.1L1156.4,274.9z"/>
	<path class="st0" d="M787.5,433.7L650.4,297.3v136.4h-31.6l-88.7-88.4V88.7L618.8,0h31.6v136.4L787.2,0h163.1L737.1,216.9
		l213.3,216.9L787.5,433.7L787.5,433.7z M650.4,274.9l54.9-58.1l-54.9-58.1l-56.9,58.1L650.4,274.9z"/>
	<path class="st0" d="M257.3,963.9L120.2,827.5v136.4H88.7L0,875.4V618.8l88.7-88.7h31.6v136.4l136.9-136.4h163.1L207,747
		l213.3,216.9H257.3z M120.2,805.1l54.9-58.1l-54.9-58.1L63.4,747L120.2,805.1z"/>
	<path class="st0" d="M787.5,963.9L650.4,827.5v136.4h-31.6l-88.7-88.4V618.8l88.7-88.7h31.6v136.4l136.9-136.4h163.1L737.1,747
		l213.3,216.9H787.5z M650.4,805.1l54.9-58.1l-54.9-58.1L593.5,747L650.4,805.1z"/>
	<path class="st0" d="M257.3,963.9L120.2,827.5v136.4H88.7L0,875.4V618.8l88.7-88.7h31.6v136.4l136.9-136.4h163.1L207,747
		l213.3,216.9H257.3z M120.2,805.1l54.9-58.1l-54.9-58.1L63.4,747L120.2,805.1z"/>
	<path class="st0" d="M787.5,963.9L650.4,827.5v136.4h-31.6l-88.7-88.4V618.8l88.7-88.7h31.6v136.4l136.9-136.4h163.1L737.1,747
		l213.3,216.9H787.5z M650.4,805.1l54.9-58.1l-54.9-58.1L593.5,747L650.4,805.1z"/>
	<path class="st0" d="M1293.5,963.9l-137.1-136.4v136.4h-31.6l-88.7-88.4V618.8l88.7-88.7h31.6v136.4l136.9-136.4h163.1L1243.1,747
		l213.3,216.9H1293.5z M1156.4,805.1l54.9-58.1l-54.9-58.1l-56.9,58.1L1156.4,805.1z"/>
	<path class="st0" d="M1823.6,963.9l-137.1-136.4v136.4h-31.6l-88.7-88.4V618.8l88.7-88.7h31.6v136.4l136.9-136.4h163.1L1773.3,747
		l213.3,216.9H1823.6z M1686.5,805.1l54.9-58.1l-54.9-58.1l-56.9,58.1L1686.5,805.1z"/>
	<path class="st0" d="M1293.5,963.9l-137.1-136.4v136.4h-31.6l-88.7-88.4V618.8l88.7-88.7h31.6v136.4l136.9-136.4h163.1L1243.1,747
		l213.3,216.9H1293.5z M1156.4,805.1l54.9-58.1l-54.9-58.1l-56.9,58.1L1156.4,805.1z"/>
	<path class="st0" d="M787.5,963.9L650.4,827.5v136.4h-31.6l-88.7-88.4V618.8l88.7-88.7h31.6v136.4l136.9-136.4h163.1L737.1,747
		l213.3,216.9H787.5z M650.4,805.1l54.9-58.1l-54.9-58.1L593.5,747L650.4,805.1z"/>
	<path class="st0" d="M257.3,1494l-137.1-136.4V1494H88.7L0,1405.5v-256.6l88.7-88.7h31.6v136.4l136.9-136.4h163.1L207,1277.1
		L420.2,1494H257.3z M120.2,1335.2l54.9-58.1l-54.9-58.1l-56.9,58.1L120.2,1335.2z"/>
	<path class="st0" d="M787.5,1494l-137.1-136.4V1494h-31.6l-88.7-88.4V1149l88.7-88.7h31.6v136.4l136.9-136.4h163.1l-213.3,216.9
		L950.4,1494H787.5z M650.4,1335.2l54.9-58.1l-54.9-58.1l-56.9,58.1L650.4,1335.2z"/>
	<path class="st0" d="M257.3,1494l-137.1-136.4V1494H88.7L0,1405.5v-256.6l88.7-88.7h31.6v136.4l136.9-136.4h163.1L207,1277.1
		L420.2,1494H257.3z M120.2,1335.2l54.9-58.1l-54.9-58.1l-56.9,58.1L120.2,1335.2z"/>
	<path class="st0" d="M787.5,1494l-137.1-136.4V1494h-31.6l-88.7-88.4V1149l88.7-88.7h31.6v136.4l136.9-136.4h163.1l-213.3,216.9
		L950.4,1494H787.5z M650.4,1335.2l54.9-58.1l-54.9-58.1l-56.9,58.1L650.4,1335.2z"/>
	<path class="st0" d="M1293.5,1494l-137.1-136.4V1494h-31.6l-88.7-88.4V1149l88.7-88.7h31.6v136.4l136.9-136.4h163.1l-213.3,216.9
		l213.3,216.9h-162.9V1494z M1156.4,1335.2l54.9-58.1l-54.9-58.1l-56.9,58.1L1156.4,1335.2z"/>
	<path class="st0" d="M1823.6,1494l-137.1-136.4V1494h-31.6l-88.7-88.4V1149l88.7-88.7h31.6v136.4l136.9-136.4h163.1l-213.3,216.9
		l213.3,216.9h-162.9V1494z M1686.5,1335.2l54.9-58.1l-54.9-58.1l-56.9,58.1L1686.5,1335.2z"/>
	<path class="st0" d="M1293.5,1494l-137.1-136.4V1494h-31.6l-88.7-88.4V1149l88.7-88.7h31.6v136.4l136.9-136.4h163.1l-213.3,216.9
		l213.3,216.9h-162.9V1494z M1156.4,1335.2l54.9-58.1l-54.9-58.1l-56.9,58.1L1156.4,1335.2z"/>
	<path class="st0" d="M787.5,1494l-137.1-136.4V1494h-31.6l-88.7-88.4V1149l88.7-88.7h31.6v136.4l136.9-136.4h163.1l-213.3,216.9
		L950.4,1494H787.5z M650.4,1335.2l54.9-58.1l-54.9-58.1l-56.9,58.1L650.4,1335.2z"/>
	<path class="st0" d="M257.3,2024.1l-137.1-136.4v136.4H88.7L0,1935.7V1679l88.7-88.7h31.6v136.4l136.9-136.4h163.1L207,1807.2
		l213.3,216.9H257.3z M120.2,1865.3l54.9-58.1l-54.9-58.1l-56.9,58.1L120.2,1865.3z"/>
	<path class="st0" d="M787.5,2024.1l-137.1-136.4v136.4h-31.6l-88.7-88.4V1679l88.7-88.7h31.6v136.4l136.9-136.4h163.1l-213.3,216.9
		l213.3,216.9L787.5,2024.1L787.5,2024.1z M650.4,1865.3l54.9-58.1l-54.9-58.1l-56.9,58.1L650.4,1865.3z"/>
	<path class="st0" d="M257.3,2024.1l-137.1-136.4v136.4H88.7L0,1935.7V1679l88.7-88.7h31.6v136.4l136.9-136.4h163.1L207,1807.2
		l213.3,216.9H257.3z M120.2,1865.3l54.9-58.1l-54.9-58.1l-56.9,58.1L120.2,1865.3z"/>
	<path class="st0" d="M787.5,2024.1l-137.1-136.4v136.4h-31.6l-88.7-88.4V1679l88.7-88.7h31.6v136.4l136.9-136.4h163.1l-213.3,216.9
		l213.3,216.9L787.5,2024.1L787.5,2024.1z M650.4,1865.3l54.9-58.1l-54.9-58.1l-56.9,58.1L650.4,1865.3z"/>
	<path class="st0" d="M1293.5,2024.1l-137.1-136.4v136.4h-31.6l-88.7-88.4V1679l88.7-88.7h31.6v136.4l136.9-136.4h163.1
		l-213.3,216.9l213.3,216.9L1293.5,2024.1L1293.5,2024.1z M1156.4,1865.3l54.9-58.1l-54.9-58.1l-56.9,58.1L1156.4,1865.3z"/>
	<path class="st0" d="M1823.6,2024.1l-137.1-136.4v136.4h-31.6l-88.7-88.4V1679l88.7-88.7h31.6v136.4l136.9-136.4h163.1
		l-213.3,216.9l213.3,216.9L1823.6,2024.1L1823.6,2024.1z M1686.5,1865.3l54.9-58.1l-54.9-58.1l-56.9,58.1L1686.5,1865.3z"/>
	<path class="st0" d="M1293.5,2024.1l-137.1-136.4v136.4h-31.6l-88.7-88.4V1679l88.7-88.7h31.6v136.4l136.9-136.4h163.1
		l-213.3,216.9l213.3,216.9L1293.5,2024.1L1293.5,2024.1z M1156.4,1865.3l54.9-58.1l-54.9-58.1l-56.9,58.1L1156.4,1865.3z"/>
	<path class="st0" d="M787.5,2024.1l-137.1-136.4v136.4h-31.6l-88.7-88.4V1679l88.7-88.7h31.6v136.4l136.9-136.4h163.1l-213.3,216.9
		l213.3,216.9L787.5,2024.1L787.5,2024.1z M650.4,1865.3l54.9-58.1l-54.9-58.1l-56.9,58.1L650.4,1865.3z"/>
</g>
</svg>
