<?xml version="1.0" encoding="utf-8"?>
<!-- Generator: Adobe Illustrator 23.1.0, SVG Export Plug-In . SVG Version: 6.00 Build 0)  -->
<svg version="1.1" id="Layer_1" xmlns="http://www.w3.org/2000/svg" xmlns:xlink="http://www.w3.org/1999/xlink" x="0px" y="0px"
	 viewBox="0 0 1986.5 2024.1" style="enable-background:new 0 0 1986.5 2024.1;" xml:space="preserve">
<style type="text/css">
	.st0{fill-rule:evenodd;clip-rule:evenodd;}
</style>
<g>
	<path class="st0" d="M420.2,0H257.1L120.3,136.4V0H88.7L0,88.7v256.6l88.7,88.4h31.5V297.3l137.1,136.4v0.1h163L207,216.9L420.2,0z
		 M120.2,274.9l-56.9-58.1l56.9-58.1l54.9,58.1L120.2,274.9z"/>
	<path class="st0" d="M1686.5,433.7V297.3l137.1,136.4v0.1h162.9l-213.3-216.9L1986.5,0h-163.1l-136.9,136.4V0h-31.6l-88.7,88.7
		v256.6l88.7,88.4H1686.5z M1686.5,158.7l54.9,58.1l-54.9,58.1l-56.9-58.1L1686.5,158.7z"/>
	<path class="st0" d="M1336.1,0v136.4L1199.2,0h-163.1l213.3,216.9l-213.3,216.9H1199v-0.1l137.1-136.4v136.4h31.6l88.7-88.4V88.7
		L1367.7,0H1336.1z M1336.1,274.9l-54.9-58.1l54.9-58.1l56.9,58.1L1336.1,274.9z"/>
	<path class="st0" d="M650.4,433.7V297.3l137.1,136.4v0.1h162.9L737.1,216.9L950.3,0H787.2L650.4,136.4V0h-31.6l-88.7,88.7v256.6
		l88.7,88.4H650.4z M650.4,158.7l54.9,58.1l-54.9,58.1l-56.9-58.1L650.4,158.7z"/>
	<path class="st0" d="M257.2,530.1L120.3,666.5V530.1H88.7L0,618.8v256.6l88.7,88.5h31.5V827.5l137.1,136.4h163L207,747l213.3-216.9
		H257.2z M120.2,805.1L63.4,747l56.8-58.1l54.9,58.1L120.2,805.1z"/>
	<path class="st0" d="M1686.5,963.9V827.5l137.1,136.4h163L1773.3,747l213.2-216.9h-163.1l-136.9,136.4V530.1h-31.6l-88.7,88.7
		v256.7l88.7,88.4H1686.5z M1686.5,688.9l54.9,58.1l-54.9,58.1l-56.9-58.1L1686.5,688.9z"/>
	<path class="st0" d="M120.3,1196.6v-136.4H88.7L0,1148.9v256.6l88.7,88.5h31.5v-136.4L257.3,1494h162.9L207,1277.1l213.3-216.9
		H257.2L120.3,1196.6z M120.2,1335.2l-56.9-58.1l56.9-58.1l54.9,58.1L120.2,1335.2z"/>
	<path class="st0" d="M1823.4,1060.3l-136.9,136.4v-136.4h-31.6l-88.7,88.7v256.6l88.7,88.4h31.6v-136.4l137.1,136.4v0.1h162.9
		l-213.3-216.9l213.3-216.9H1823.4z M1686.5,1335.2l-56.9-58.1l56.9-58.1l54.9,58.1L1686.5,1335.2z"/>
	<path class="st0" d="M257.2,1590.3l-136.9,136.4v-136.4H88.7L0,1679v256.7l88.7,88.4h31.5v-136.4l137.1,136.4h163L207,1807.2
		l213.3-216.9H257.2z M120.2,1865.3l-56.9-58.1l56.9-58.1l54.9,58.1L120.2,1865.3z"/>
	<path class="st0" d="M1823.4,1590.3l-136.9,136.4v-136.4h-31.6l-88.7,88.7v256.7l88.7,88.4h31.6v-136.4l137.1,136.4v0h162.9
		l-213.3-216.9l213.3-216.9H1823.4z M1686.5,1865.3l-56.9-58.1l56.9-58.1l54.9,58.1L1686.5,1865.3z"/>
	<path class="st0" d="M1336.1,1590.3v136.4l-136.9-136.4h-163.1l213.3,216.9l-213.3,216.9H1199v0l137.1-136.4v136.4h31.6l88.7-88.4
		V1679l-88.7-88.7H1336.1z M1336.1,1865.3l-54.9-58.1l54.9-58.1l56.9,58.1L1336.1,1865.3z"/>
	<path class="st0" d="M787.3,1590.3l-136.9,136.4v-136.4h-31.6l-88.7,88.7v256.7l88.7,88.4h31.6v-136.4l137.1,136.4v0h162.9
		l-213.3-216.9l213.3-216.9H787.3z M650.4,1865.3l-56.9-58.1l56.9-58.1l54.9,58.1L650.4,1865.3z"/>
	<path class="st0" d="M795.2,830.7V530.1h-69.6L530.1,725.6v565.7l195.5,194.8h69.6v-300.6l302.2,300.6h359l-470.1-478l470.1-478
		h-359.5L795.2,830.7z M795.2,1136.2l-125.4-128l125.4-128l121,128L795.2,1136.2z"/>
</g>
</svg>
